# File created by Blade
# Date/Time:  Thu Jan 22 18:06:37 2015
#---------------------------------------------------------
:version 1.10
:name HOM
:units
  mass 1.0
  length 1.000000
  angle deg
:documentation
     Acclaim Skeleton File
:root
   axis xyz
   order TX TY TZ RX RY RZ
   position 0.000000 0.000000 0.000000
   orientation 0 0 0
:bonedata
   begin
      id 1
      name RightUpLeg_dum
      direction -1.000000 0.000000 0.000000
      length 4.478084
      axis 0.0 0.0 0.0 xyz
   end
   begin
      id 2
      name LeftUpLeg_dum
      direction 1.000000 0.000000 0.000000
      length 4.478084
      axis 0.0 0.0 0.0 xyz
   end
   begin
      id 3
      name Spine_dum
      direction 0.000000 1.000000 0.000000
      length 6.068208
      axis 0.0 0.0 0.0 xyz
   end
   begin
      id 4
      name RightUpLeg
      direction 0.000000 -1.000000 0.000000
      length 16.405774
      axis 0.0 0.0 0.0 xyz
      dof rx ry rz
   end
   begin
      id 5
      name RightLeg
      direction 0.000000 -1.000000 0.000000
      length 14.644143
      axis 0.0 0.0 0.0 xyz
      dof rx ry rz
   end
   begin
      id 6
      name RightFoot
      direction 0.000000 -0.258819 0.965926
      length 5.806150
      axis 15.0 0.0 0.0 xyz
      dof rx ry rz
   end
   begin
      id 7
      name RightToeBase
      direction 0.000000 0.000000 1.000000
      length 2.952750
      axis 0.0 0.0 0.0 xyz
      dof rx ry rz
   end
   begin
      id 8
      name LeftUpLeg
      direction 0.000000 -1.000000 0.000000
      length 16.405774
      axis 0.0 0.0 0.0 xyz
      dof rx ry rz
   end
   begin
      id 9
      name LeftLeg
      direction 0.000000 -1.000000 0.000000
      length 14.644143
      axis 0.0 0.0 0.0 xyz
      dof rx ry rz
   end
   begin
      id 10
      name LeftFoot
      direction 0.000000 -0.258819 0.965926
      length 5.806150
      axis 15.0 0.0 0.0 xyz
      dof rx ry rz
   end
   begin
      id 11
      name LeftToeBase
      direction 0.000000 0.000000 1.000000
      length 2.952750
      axis 0.0 0.0 0.0 xyz
      dof rx ry rz
   end
   begin
      id 12
      name Spine
      direction 0.000000 1.000000 0.000000
      length 0.000000
      axis 0.0 0.0 0.0 xyz
      dof rx ry rz
   end
   begin
      id 13
      name Spine_dum1
      direction 0.000000 1.000000 0.000000
      length 10.013923
      axis 0.0 0.0 0.0 xyz
   end
   begin
      id 14
      name Spine_dum2
      direction 0.000000 1.000000 0.000000
      length 10.013923
      axis 0.0 0.0 0.0 xyz
   end
   begin
      id 15
      name Spine_dum3
      direction 0.000000 1.000000 0.000000
      length 15.777476
      axis 0.0 0.0 0.0 xyz
   end
   begin
      id 16
      name RightShoulder
      direction -1.000000 0.000000 0.000000
      length 7.190220
      axis 0.0 0.0 90.0 xyz
      dof rx ry rz
   end
   begin
      id 17
      name RightArm
      direction -1.000000 0.000000 0.000000
      length 10.177469
      axis 0.0 0.0 90.0 xyz
      dof rx ry rz
   end
   begin
      id 18
      name RightForeArm
      direction -1.000000 0.000000 0.000000
      length 8.392114
      axis 0.0 0.0 90.0 xyz
      dof ry rz rx
   end
   begin
      id 19
      name RightHand
      direction -1.000000 0.000000 0.000000
      length 0.000000
      axis 0.0 0.0 90.0 xyz
      dof rx ry rz
   end
   begin
      id 20
      name RightHand_dum1
      direction -1.000000 0.000000 0.000000
      length 3.937000
      axis 0.0 0.0 90.0 xyz
   end
   begin
      id 21
      name RightHand_dum2
      direction 0.000000 0.000000 0.000000
      length 0.000000
      axis 0.0 0.0 90.0 xyz
   end
   begin
      id 22
      name RightHandThumb1
      direction 0.000000 0.000000 1.000000
      length 3.937000
      axis 0.0 0.0 90.0 xyz
      dof rx rz ry
   end
   begin
      id 23
      name LeftShoulder
      direction 1.000000 0.000000 0.000000
      length 7.190220
      axis 0.0 0.0 -90.0 xyz
      dof rx ry rz
   end
   begin
      id 24
      name LeftArm
      direction 1.000000 0.000000 0.000000
      length 10.177469
      axis 0.0 0.0 -90.0 xyz
      dof rx ry rz
   end
   begin
      id 25
      name LeftForeArm
      direction 1.000000 0.000000 0.000000
      length 8.392114
      axis 0.0 0.0 -90.0 xyz
      dof ry rz rx
   end
   begin
      id 26
      name LeftHand
      direction 1.000000 0.000000 0.000000
      length 0.000000
      axis 0.0 0.0 -90.0 xyz
      dof rx ry rz
   end
   begin
      id 27
      name LeftHand_dum1
      direction 1.000000 0.000000 0.000000
      length 3.937000
      axis 0.0 0.0 -90.0 xyz
   end
   begin
      id 28
      name LeftHand_dum2
      direction 0.000000 0.000000 0.000000
      length 0.000000
      axis 0.0 0.0 -90.0 xyz
   end
   begin
      id 29
      name LeftHandThumb1
      direction 0.000000 0.000000 1.000000
      length 3.937000
      axis 0.0 0.0 -90.0 xyz
      dof rx rz ry
   end
   begin
      id 30
      name Head
      direction 0.000000 1.000000 0.000000
      length 4.527550
      axis 0.0 0.0 0.0 xyz
      dof rx ry rz
   end
:hierarchy
   begin
      root RightUpLeg_dum LeftUpLeg_dum Spine_dum
      RightUpLeg_dum RightUpLeg
      LeftUpLeg_dum LeftUpLeg
      Spine_dum Spine
      RightUpLeg RightLeg
      RightLeg RightFoot
      RightFoot RightToeBase
      LeftUpLeg LeftLeg
      LeftLeg LeftFoot
      LeftFoot LeftToeBase
      Spine Spine_dum1 Spine_dum2 Spine_dum3
      Spine_dum1 RightShoulder
      Spine_dum2 LeftShoulder
      Spine_dum3 Head
      RightShoulder RightArm
      RightArm RightForeArm
      RightForeArm RightHand
      RightHand RightHand_dum1 RightHand_dum2
      RightHand_dum2 RightHandThumb1
      LeftShoulder LeftArm
      LeftArm LeftForeArm
      LeftForeArm LeftHand
      LeftHand LeftHand_dum1 LeftHand_dum2
      LeftHand_dum2 LeftHandThumb1
   end

# File created by Blade
# Date/Time:  Thu Jan 22 18:06:27 2015
# Frame Rate: 120.000 fps
#------------------------------------------------------
:FULLY-SPECIFIED
:DEGREES
1407
root 0.475894 32.873706 -2.307153 8.171609 16.728642 3.893595
RightUpLeg -30.162176 11.802081 -5.580835
RightLeg 79.819873 -0.000000 -0.000000
RightFoot -1.541466 -7.103608 1.742461
RightToeBase -3.026019 -0.000000 0.000000
LeftUpLeg -1.547114 -9.916749 -9.979686
LeftLeg 0.063745 -0.000000 -0.000000
LeftFoot -7.153240 -5.632193 -3.419442
LeftToeBase 7.890172 -0.000000 -0.000000
Spine -9.080194 -7.310366 -3.222449
RightShoulder -18.585818 -19.376722 -21.837700
RightArm 15.967233 26.672187 53.009020
RightForeArm -9.206159 -0.000000 17.460205
RightHand 7.299764 -0.000000 9.231513
RightHandThumb1 -24.326973 -0.000000 -32.862282
LeftShoulder -20.871019 2.432502 24.284450
LeftArm 31.764896 -23.143962 -59.985870
LeftForeArm 4.711787 0.000000 51.512273
LeftHand 0.309760 -0.000000 33.203679
LeftHandThumb1 -26.253704 0.000000 33.147579
Head 18.312319 3.111087 -2.081436
1408
root 0.473447 32.877156 -2.304475 8.105324 16.430437 3.832355
RightUpLeg -30.119431 11.505991 -5.483964
RightLeg 79.510969 -0.000000 -0.000000
RightFoot -1.722752 -7.362635 1.958160
RightToeBase -2.985909 -0.000000 0.000000
LeftUpLeg -1.520985 -9.803633 -9.961843
LeftLeg 0.095825 -0.000000 -0.000000
LeftFoot -7.218359 -5.438246 -3.572706
LeftToeBase 7.926270 -0.000000 -0.000000
Spine -9.070149 -7.156525 -3.191476
RightShoulder -18.535402 -19.343259 -21.827884
RightArm 16.021669 26.638933 52.983844
RightForeArm -9.220861 -0.000000 17.425929
RightHand 7.262790 -0.000000 9.237803
RightHandThumb1 -24.326973 -0.000000 -32.862282
LeftShoulder -20.939400 2.608509 24.179066
LeftArm 31.632920 -23.395700 -59.955212
LeftForeArm 4.588057 0.000000 51.734111
LeftHand 0.332706 0.000000 33.547819
LeftHandThumb1 -26.253704 0.000000 33.147579
Head 18.350594 3.216696 -2.111150
1409
root 0.472086 32.879160 -2.302276 8.029730 16.157177 3.770458
RightUpLeg -30.060272 11.212139 -5.381610
RightLeg 79.210257 -0.000000 -0.000000
RightFoot -1.863273 -7.585394 2.069036
RightToeBase -2.965358 -0.000000 0.000000
LeftUpLeg -1.479944 -9.700253 -9.953739
LeftLeg 0.115953 -0.000000 -0.000000
LeftFoot -7.294313 -5.249250 -3.599574
LeftToeBase 7.928133 -0.000000 -0.000000
Spine -9.044244 -6.999270 -3.154218
RightShoulder -18.481985 -19.319681 -21.852371
RightArm 16.066905 26.739968 53.049530
RightForeArm -9.336617 -0.000000 17.399463
RightHand 7.263357 -0.000000 9.173316
RightHandThumb1 -24.326973 -0.000000 -32.862282
LeftShoulder -20.990708 2.637702 24.157691
LeftArm 31.360675 -23.622198 -59.966531
LeftForeArm 4.680983 -0.000000 52.033502
LeftHand 0.234777 -0.000000 33.152322
LeftHandThumb1 -26.253704 0.000000 33.147579
Head 18.378741 3.274421 -2.136044
1410
root 0.470938 32.881238 -2.293535 7.923804 15.852551 3.706435
RightUpLeg -29.971092 10.980704 -5.282370
RightLeg 78.929834 -0.000000 -0.000000
RightFoot -2.017172 -7.770436 1.994634
RightToeBase -2.818624 -0.000000 0.000000
LeftUpLeg -1.370788 -9.604317 -9.953432
LeftLeg 0.091367 -0.000000 -0.000000
LeftFoot -7.386160 -4.945863 -3.475679
LeftToeBase 8.000716 -0.000000 -0.000000
Spine -9.012334 -6.811625 -3.123998
RightShoulder -18.400092 -19.260534 -21.903897
RightArm 16.037080 26.704479 53.048076
RightForeArm -9.333393 -0.000000 17.334228
RightHand 7.347760 0.000000 9.086627
RightHandThumb1 -24.326973 -0.000000 -32.862282
LeftShoulder -21.063304 2.749124 24.071018
LeftArm 31.201090 -23.846952 -59.962146
LeftForeArm 4.633265 -0.000000 52.279701
LeftHand 0.371657 -0.000000 33.065819
LeftHandThumb1 -26.253704 0.000000 33.147579
Head 18.443521 3.346367 -2.163052
1411
root 0.468660 32.882787 -2.286925 7.828893 15.617595 3.639164
RightUpLeg -29.874208 10.711842 -5.166724
RightLeg 78.635853 -0.000000 -0.000000
RightFoot -2.184691 -8.013130 1.931235
RightToeBase -2.907834 -0.000000 0.000000
LeftUpLeg -1.289206 -9.536726 -9.937965
LeftLeg 0.089242 -0.000000 -0.000000
LeftFoot -7.461040 -4.712459 -3.388946
LeftToeBase 7.965277 -0.000000 -0.000000
Spine -8.982173 -6.672038 -3.081809
RightShoulder -18.338844 -19.234332 -21.936131
RightArm 15.993250 26.633594 53.006961
RightForeArm -9.362385 0.000000 17.343448
RightHand 7.397347 -0.000000 9.217888
RightHandThumb1 -24.326973 -0.000000 -32.862282
LeftShoulder -21.118113 2.772207 24.017601
LeftArm 30.971755 -24.015710 -59.923254
LeftForeArm 4.692959 -0.000000 52.542031
LeftHand 0.292228 -0.000000 33.085312
LeftHandThumb1 -26.253704 0.000000 33.147579
Head 18.499890 3.389437 -2.195689
1412
root 0.463590 32.883207 -2.284602 7.764070 15.412691 3.573577
RightUpLeg -29.827094 10.452681 -5.057363
RightLeg 78.370874 -0.000000 -0.000000
RightFoot -2.523978 -8.206998 2.404233
RightToeBase -2.231123 -0.000000 0.000000
LeftUpLeg -1.259722 -9.500822 -9.913291
LeftLeg 0.117229 -0.000000 -0.000000
LeftFoot -7.518519 -4.521423 -3.336768
LeftToeBase 7.853881 -0.000000 -0.000000
Spine -8.973948 -6.545447 -3.044092
RightShoulder -18.288798 -19.187251 -21.968592
RightArm 15.956207 26.581249 52.973973
RightForeArm -9.360188 -0.000000 17.258023
RightHand 7.395322 0.000000 9.202749
RightHandThumb1 -24.326973 -0.000000 -32.862282
LeftShoulder -21.157224 2.793569 23.967683
LeftArm 30.762396 -24.159157 -59.868792
LeftForeArm 4.832043 0.000000 52.791343
LeftHand 0.163201 -0.000000 33.030347
LeftHandThumb1 -26.253704 0.000000 33.147579
Head 18.555551 3.408077 -2.216595
1413
root 0.459315 32.883502 -2.274929 7.652513 15.150834 3.511619
RightUpLeg -29.725974 10.241521 -4.945336
RightLeg 78.091152 -0.000000 -0.000000
RightFoot -2.685737 -8.368972 2.366005
RightToeBase -2.113380 -0.000000 0.000000
LeftUpLeg -1.149108 -9.432420 -9.905294
LeftLeg 0.093815 -0.000000 -0.000000
LeftFoot -7.578618 -4.267744 -3.256181
LeftToeBase 7.811600 -0.000000 -0.000000
Spine -8.932456 -6.358946 -3.023481
RightShoulder -18.242976 -19.174080 -21.986800
RightArm 15.959416 26.598100 52.971291
RightForeArm -9.504651 0.000000 17.127379
RightHand 7.498752 0.000000 9.231899
RightHandThumb1 -24.326973 -0.000000 -32.862282
LeftShoulder -21.202987 2.818724 23.924673
LeftArm 30.551708 -24.331460 -59.850511
LeftForeArm 4.771591 -0.000000 53.061835
LeftHand 0.239581 -0.000000 32.974481
LeftHandThumb1 -26.253704 0.000000 33.147579
Head 18.632612 3.429956 -2.248137
1414
root 0.457068 32.882677 -2.262322 7.542613 14.854384 3.463024
RightUpLeg -29.632448 10.093283 -4.861228
RightLeg 77.857790 -0.000000 -0.000000
RightFoot -2.799180 -8.493223 2.264322
RightToeBase -2.382371 -0.000000 0.000000
LeftUpLeg -1.021992 -9.362503 -9.915699
LeftLeg 0.059555 -0.000000 -0.000000
LeftFoot -7.664979 -3.942634 -3.143771
LeftToeBase 7.820800 -0.000000 -0.000000
Spine -8.903278 -6.125287 -3.025612
RightShoulder -18.225601 -19.201737 -22.009085
RightArm 15.970553 26.536056 52.982541
RightForeArm -9.474716 0.000000 17.086506
RightHand 7.427916 -0.000000 9.264230
RightHandThumb1 -24.326973 -0.000000 -32.862282
LeftShoulder -21.262180 2.993110 23.793751
LeftArm 30.542912 -24.508064 -59.820626
LeftForeArm 4.775975 -0.000000 53.303994
LeftHand 0.188698 -0.000000 32.872629
LeftHandThumb1 -26.253704 0.000000 33.147579
Head 18.728206 3.458657 -2.278165
1415
root 0.452847 32.880606 -2.259897 7.465667 14.658420 3.419724
RightUpLeg -29.579073 9.880334 -4.767767
RightLeg 77.637512 -0.000000 -0.000000
RightFoot -2.944225 -8.567330 2.366871
RightToeBase -2.286159 -0.000000 0.000000
LeftUpLeg -0.979941 -9.368011 -9.913997
LeftLeg 0.101737 -0.000000 -0.000000
LeftFoot -7.752338 -3.688120 -3.053697
LeftToeBase 7.855765 -0.000000 -0.000000
Spine -8.868055 -5.988285 -3.016745
RightShoulder -18.212756 -19.206043 -22.019699
RightArm 15.995544 26.477762 52.973952
RightForeArm -9.444834 -0.000000 16.984706
RightHand 7.432046 0.000000 9.288036
RightHandThumb1 -24.326973 -0.000000 -32.862282
LeftShoulder -21.313522 2.999869 23.739678
LeftArm 30.362441 -24.615276 -59.745805
LeftForeArm 4.854226 -0.000000 53.585865
LeftHand -0.010655 -0.000000 32.782217
LeftHandThumb1 -26.253704 0.000000 33.147579
Head 18.774944 3.446642 -2.308472
1416
root 0.448573 32.878169 -2.255073 7.377731 14.461358 3.372515
RightUpLeg -29.506859 9.647563 -4.679750
RightLeg 77.414488 -0.000000 -0.000000
RightFoot -2.989914 -8.655572 2.317366
RightToeBase -2.569836 -0.000000 0.000000
LeftUpLeg -0.924640 -9.404480 -9.907906
LeftLeg 0.139242 -0.000000 -0.000000
LeftFoot -7.845829 -3.422100 -2.994443
LeftToeBase 7.908985 -0.000000 -0.000000
Spine -8.827040 -5.836354 -3.005646
RightShoulder -18.204462 -19.226751 -22.028841
RightArm 16.026091 26.463940 52.984606
RightForeArm -9.420206 -0.000000 16.866144
RightHand 7.299653 -0.000000 9.223670
RightHandThumb1 -24.326973 -0.000000 -32.862282
LeftShoulder -21.340209 3.014498 23.686882
LeftArm 30.165123 -24.750025 -59.677276
LeftForeArm 4.776107 0.000000 53.855989
LeftHand 0.149275 -0.000000 32.710934
LeftHandThumb1 -26.253704 0.000000 33.147579
Head 18.829005 3.435340 -2.334254
1417
root 0.441623 32.874679 -2.250425 7.292371 14.247879 3.335764
RightUpLeg -29.459913 9.472260 -4.595105
RightLeg 77.252144 -0.000000 -0.000000
RightFoot -3.143204 -8.699943 2.394086
RightToeBase -3.010904 -0.000000 0.000000
LeftUpLeg -0.880618 -9.435695 -9.904485
LeftLeg 0.199579 -0.000000 -0.000000
LeftFoot -7.958979 -3.177332 -2.983063
LeftToeBase 7.949051 -0.000000 -0.000000
Spine -8.784128 -5.667094 -3.027465
RightShoulder -18.192002 -19.223423 -22.029773
RightArm 16.001092 26.442245 52.982609
RightForeArm -9.389887 -0.000000 16.807227
RightHand 7.375733 -0.000000 9.356324
RightHandThumb1 -24.326973 -0.000000 -32.862282
LeftShoulder -21.308513 2.796006 23.771401
LeftArm 29.682194 -24.747827 -59.474836
LeftForeArm 4.741117 -0.000000 54.134570
LeftHand 0.126034 0.000000 32.612859
LeftHandThumb1 -26.253704 0.000000 33.147579
Head 18.887087 3.408819 -2.335260
1418
root 0.438354 32.870074 -2.244203 7.206393 14.063593 3.320519
RightUpLeg -29.391830 9.297855 -4.529121
RightLeg 77.098313 -0.000000 -0.000000
RightFoot -3.416519 -8.668146 2.784853
RightToeBase -2.542903 -0.000000 0.000000
LeftUpLeg -0.806547 -9.499809 -9.935449
LeftLeg 0.227673 -0.000000 -0.000000
LeftFoot -8.056149 -2.851963 -2.896317
LeftToeBase 7.837531 -0.000000 -0.000000
Spine -8.740569 -5.512617 -3.069279
RightShoulder -18.187239 -19.198135 -22.016491
RightArm 15.959331 26.494329 52.969639
RightForeArm -9.467876 -0.000000 16.717065
RightHand 7.299383 -0.000000 9.368874
RightHandThumb1 -24.326973 -0.000000 -32.862282
LeftShoulder -21.310018 2.708448 23.812156
LeftArm 29.370683 -24.782774 -59.351465
LeftForeArm 4.674984 -0.000000 54.410962
LeftHand 0.153192 -0.000000 32.390507
LeftHandThumb1 -26.253704 0.000000 33.147579
Head 18.948552 3.386662 -2.323819
1419
root 0.435575 32.865970 -2.240493 7.152987 13.878936 3.325968
RightUpLeg -29.362839 9.142840 -4.491642
RightLeg 76.966518 -0.000000 -0.000000
RightFoot -3.559406 -8.609848 2.951341
RightToeBase -2.461660 -0.000000 0.000000
LeftUpLeg -0.771460 -9.499812 -9.967211
LeftLeg 0.267137 -0.000000 -0.000000
LeftFoot -8.136373 -2.664115 -2.894081
LeftToeBase 7.851139 -0.000000 -0.000000
Spine -8.738964 -5.364390 -3.113392
RightShoulder -18.174158 -19.184028 -22.048414
RightArm 15.914559 26.449042 52.966451
RightForeArm -9.401691 0.000000 16.639840
RightHand 7.294055 -0.000000 9.378948
RightHandThumb1 -24.326973 -0.000000 -32.862282
LeftShoulder -21.332434 2.782934 23.730578
LeftArm 29.314138 -24.834452 -59.212736
LeftForeArm 4.711736 -0.000000 54.560974
LeftHand 0.036149 -0.000000 32.657825
LeftHandThumb1 -26.253704 0.000000 33.147579
Head 19.042822 3.323996 -2.308847
